:FULLY-SPECIFIED
:FORCE-ALL-JOINTS-BE-3DOF
:DEGREES
2854
root -6.07942 13.2709 -28.797 161.068 -66.8344 -159.329
lfemur -65.8618 45.1344 -6.05785
ltibia 77.143 -0 0
lfoot -4.91781 -6.23516 0.000975086
ltoes -29.0268 0 0
rfemur -31.3503 -19.1732 22.2173
rtibia 88.8764 -0 0
rfoot -40.8916 -29.006 -0.000876191
rtoes -13.9782 0 0
lowerback 15.6237 5.62287 1.02893
upperback -4.52103 7.99437 1.63889
thorax -13.9421 3.69525 -0.931587
lowerneck -2.56002 9.62382 2.19729
upperneck 9.14497 12.53 2.06586
head 3.40122 6.32995 0.767776
lclavicle -2.86498e-14 -1.43125e-14 0
lhumerus 5.32815 12.3336 84.2989
lradius 93.422 -0 0
lwrist -19.0262 0 0
lhand -39.5638 28.6285 6.33715e-05
lfingers 7.12502 -0 0
lthumb -12.5473 58.2316 6.18642e-05
rclavicle -2.86498e-14 -1.43125e-14 0
rhumerus -59.1836 51.1021 -111.593
rradius 113.572 -0 0
rwrist -83.7513 0 0
rhand 7.88027 -26.2331 0.000214425
rfingers 7.12502 -0 0
rthumb 33.1132 -53.2092 0.000251041
2855
root -6.08047 13.2681 -28.7961 161.013 -66.8448 -159.253
lfemur -65.9259 45.1229 -6.053
ltibia 77.1915 -0 0
lfoot -4.95191 -6.2525 0.000932728
ltoes -29.0787 0 0
rfemur -31.3798 -19.1637 22.252
rtibia 88.9116 -0 0
rfoot -40.8834 -29.0705 -0.000838129
rtoes -13.9963 0 0
lowerback 15.6458 5.617 1.06208
upperback -4.52714 7.99469 1.64369
thorax -13.9587 3.69206 -0.947104
lowerneck -2.56562 9.62512 2.19823
upperneck 9.1486 12.5313 2.06741
head 3.40953 6.33278 0.771
lclavicle -2.86498e-14 -1.43125e-14 0
lhumerus 5.34619 12.342 84.3011
lradius 93.4074 -0 0
lwrist -19.0173 0 0
lhand -39.5611 28.6425 6.06187e-05
lfingers 7.12502 -0 0
lthumb -12.5446 58.2458 5.91768e-05
rclavicle -2.86498e-14 -1.43125e-14 0
rhumerus -59.186 51.1222 -111.594
rradius 113.568 -0 0
rwrist -83.7263 0 0
rhand 7.89247 -26.2224 0.00020511
rfingers 7.12502 -0 0
rthumb 33.1248 -53.1961 0.000240136
2856
root -6.08153 13.2653 -28.7952 160.959 -66.855 -159.178
lfemur -65.9886 45.1116 -6.04825
ltibia 77.239 -0 0
lfoot -4.98525 -6.26945 0.000881336
ltoes -29.1295 0 0
rfemur -31.4087 -19.1544 22.286
rtibia 88.946 -0 0
rfoot -40.8753 -29.1335 -0.000791948
rtoes -14.014 0 0
lowerback 15.6673 5.61125 1.09448
upperback -4.53311 7.995 1.64837
thorax -13.9749 3.68893 -0.962275
lowerneck -2.5711 9.62639 2.19916
upperneck 9.15216 12.5326 2.06893
head 3.41125 6.33336 0.771665
lclavicle -2.86498e-14 -1.43125e-14 0
lhumerus 5.36383 12.3503 84.3032
lradius 93.3931 -0 0
lwrist -19.0087 0 0
lhand -39.5584 28.6562 5.72787e-05
lfingers 7.12502 -0 0
lthumb -12.542 58.2596 5.59162e-05
rclavicle -2.86498e-14 -1.43125e-14 0
rhumerus -59.1884 51.1419 -111.594
rradius 113.563 -0 0
rwrist -83.7018 0 0
rhand 7.9044 -26.212 0.000193809
rfingers 7.12502 -0 0
rthumb 33.1361 -53.1832 0.000226904
2857
root -6.08258 13.2625 -28.7944 160.906 -66.8648 -159.105
lfemur -66.0495 45.1006 -6.04361
ltibia 77.2851 -0 0
lfoot -5.01766 -6.28593 0.000821915
ltoes -29.1788 0 0
rfemur -31.4368 -19.1453 22.319
rtibia 88.9794 -0 0
rfoot -40.8675 -29.1948 -0.000738554
rtoes -14.0312 0 0
lowerback 15.6883 5.60565 1.12598
upperback -4.53892 7.99531 1.65293
thorax -13.9907 3.68588 -0.977022
lowerneck -2.57643 9.62762 2.20006
upperneck 9.15562 12.5339 2.0704
head 3.4129 6.33392 0.772303
lclavicle -2.86498e-14 -1.43125e-14 0
lhumerus 5.38097 12.3583 84.3052
lradius 93.3792 -0 0
lwrist -19.0003 0 0
lhand -39.5558 28.6695 5.34169e-05
lfingers 7.12502 -0 0
lthumb -12.5395 58.2731 5.21463e-05
rclavicle -2.86498e-14 -1.43125e-14 0
rhumerus -59.1907 51.161 -111.594
rradius 113.559 -0 0
rwrist -83.678 0 0
rhand 7.91599 -26.2019 0.000180742
rfingers 7.12502 -0 0
rthumb 33.1471 -53.1708 0.000211606
2858
root -6.08364 13.2597 -28.7935 160.855 -66.8743 -159.034
lfemur -66.1083 45.0899 -6.03912
ltibia 77.3297 -0 0
lfoot -5.04898 -6.30186 0.000755648
ltoes -29.2265 0 0
rfemur -31.4639 -19.1365 22.3508
rtibia 89.0117 -0 0
rfoot -40.8599 -29.254 -0.000679007
rtoes -14.0479 0 0
lowerback 15.7085 5.60023 1.15642
upperback -4.54453 7.9956 1.65734
thorax -14.0059 3.68294 -0.99127
lowerneck -2.58158 9.62882 2.20092
upperneck 9.15896 12.5352 2.07183
head 3.41447 6.33445 0.772912
lclavicle -2.86498e-14 -1.43125e-14 0
lhumerus 5.39754 12.3661 84.3072
lradius 93.3658 -0 0
lwrist -18.9922 0 0
lhand -39.5533 28.6823 4.91102e-05
lfingers 7.12502 -0 0
lthumb -12.5371 58.2861 4.79421e-05
rclavicle -2.86498e-14 -1.43125e-14 0
rhumerus -59.1929 51.1795 -111.594
rradius 113.555 -0 0
rwrist -83.655 0 0
rhand 7.92719 -26.1921 0.00016617
rfingers 7.12502 -0 0
rthumb 33.1578 -53.1587 0.000194546
2859
root -6.0847 13.2569 -28.7926 160.807 -66.8834 -158.966
lfemur -66.1648 45.0798 -6.03479
ltibia 77.3725 -0 0
lfoot -5.07903 -6.31714 0.000683876
ltoes -29.2722 0 0
rfemur -31.4898 -19.1281 22.3814
rtibia 89.0427 -0 0
rfoot -40.8527 -29.3108 -0.000614514
rtoes -14.0639 0 0
lowerback 15.728 5.59502 1.18562
upperback -4.54992 7.99589 1.66156
thorax -14.0205 3.6801 -1.00494
lowerneck -2.58652 9.62996 2.20176
upperneck 9.16216 12.5364 2.07319
head 3.41596 6.33496 0.77349
lclavicle -2.86498e-14 -1.43125e-14 0
lhumerus 5.41344 12.3735 84.309
lradius 93.3529 -0 0
lwrist -18.9845 0 0
lhand -39.5508 28.6947 4.44456e-05
lfingers 7.12502 -0 0
lthumb -12.5348 58.2986 4.33885e-05
rclavicle -2.86498e-14 -1.43125e-14 0
rhumerus -59.1951 51.1972 -111.594
rradius 113.551 -0 0
rwrist -83.6329 0 0
rhand 7.93794 -26.1827 0.000150387
rfingers 7.12502 -0 0
rthumb 33.168 -53.1472 0.000176068
2860
root -6.08575 13.2541 -28.7918 160.76 -66.8921 -158.902
lfemur -66.2185 45.0701 -6.03066
ltibia 77.4132 -0 0
lfoot -5.10765 -6.33169 0.000608079
ltoes -29.3158 0 0
rfemur -31.5146 -19.1201 22.4105
rtibia 89.0722 -0 0
rfoot -40.8457 -29.3649 -0.000546404
rtoes -14.0791 0 0
lowerback 15.7465 5.59004 1.21342
upperback -4.55504 7.99616 1.66559
thorax -14.0344 3.67741 -1.01796
lowerneck -2.59123 9.63105 2.20255
upperneck 9.16522 12.5375 2.07449
head 3.41736 6.33543 0.774034
lclavicle -2.86498e-14 -1.43125e-14 0
lhumerus 5.42858 12.3806 84.3108
lradius 93.3406 -0 0
lwrist -18.9771 0 0
lhand -39.5485 28.7064 3.95195e-05
lfingers 7.12502 -0 0
lthumb -12.5325 58.3105 3.85796e-05
rclavicle -2.86498e-14 -1.43125e-14 0
rhumerus -59.1971 51.2141 -111.595
rradius 113.547 -0 0
rwrist -83.6119 0 0
rhand 7.94818 -26.1737 0.000133719
rfingers 7.12502 -0 0
rthumb 33.1777 -53.1361 0.000156553
2861
root -6.08681 13.2513 -28.7909 160.716 -66.9002 -158.841
lfemur -66.2693 45.0609 -6.02674
ltibia 77.4517 -0 0
lfoot -5.13467 -6.34543 0.000529859
ltoes -29.3569 0 0
rfemur -31.538 -19.1124 22.438
rtibia 89.1001 -0 0
rfoot -40.8392 -29.4159 -0.000476117
rtoes -14.0934 0 0
lowerback 15.7639 5.58534 1.23967
upperback -4.55989 7.99641 1.66939
thorax -14.0475 3.67485 -1.03025
lowerneck -2.59567 9.63208 2.2033
upperneck 9.17275 12.5403 2.0777
head 3.41867 6.33588 0.774542
lclavicle -2.86498e-14 -1.43125e-14 0
lhumerus 5.44288 12.3873 84.3125
lradius 93.3291 -0 0
lwrist -18.9701 0 0
lhand -39.5464 28.7175 3.4436e-05
lfingers 7.12502 -0 0
lthumb -12.5304 58.3218 3.36169e-05
rclavicle -2.86498e-14 -1.43125e-14 0
rhumerus -59.1991 51.23 -111.595
rradius 113.543 -0 0
rwrist -83.5921 0 0
rhand 7.95784 -26.1653 0.000116518
rfingers 7.12502 -0 0
rthumb 33.1869 -53.1257 0.000136415
2862
root -6.08786 13.2485 -28.79 160.675 -66.9078 -158.784
lfemur -66.3167 45.0524 -6.02308
ltibia 77.4876 -0 0
lfoot -5.15991 -6.35826 0.000450916
ltoes -29.3953 0 0
rfemur -31.5598 -19.1053 22.4636
rtibia 89.1261 -0 0
rfoot -40.8331 -29.4636 -0.000405181
rtoes -14.1068 0 0
lowerback 15.7802 5.58094 1.26419
upperback -4.56441 7.99665 1.67294
thorax -14.0597 3.67247 -1.04173
lowerneck -2.59982 9.63304 2.204
upperneck 9.17468 12.541 2.07853
head 3.42546 6.33818 0.777173
lclavicle -2.86498e-14 -1.43125e-14 0
lhumerus 5.45624 12.3936 84.3141
lradius 93.3182 -0 0
lwrist -18.9635 0 0
lhand -39.5443 28.7279 2.93055e-05
lfingers 7.12502 -0 0
lthumb -12.5285 58.3323 2.86084e-05
rclavicle -2.86498e-14 -1.43125e-14 0
rhumerus -59.2009 51.2449 -111.595
rradius 113.54 -0 0
rwrist -83.5735 0 0
rhand 7.96687 -26.1574 9.91584e-05
rfingers 7.12502 -0 0
rthumb 33.1955 -53.116 0.000116091
2863
root -6.08892 13.2457 -28.7891 160.637 -66.9148 -158.731
lfemur -66.3604 45.0445 -6.01969
ltibia 77.5207 -0 0
lfoot -5.18321 -6.37011 0.000373023
ltoes -29.4307 0 0
rfemur -31.5799 -19.0988 22.4873
rtibia 89.1502 -0 0
rfoot -40.8275 -29.5077 -0.000335188
rtoes -14.1192 0 0
lowerback 15.7953 5.57687 1.28683
upperback -4.56858 7.99687 1.67622
thorax -14.071 3.67026 -1.05233
lowerneck -2.60365 9.63393 2.20464
upperneck 9.17645 12.5417 2.07928
head 3.42546 6.33818 0.777173
lclavicle -2.86498e-14 -1.43125e-14 0
lhumerus 5.46857 12.3993 84.3156
lradius 93.3083 -0 0
lwrist -18.9575 0 0
lhand -39.5425 28.7375 2.42431e-05
lfingers 7.12502 -0 0
lthumb -12.5267 58.342 2.36665e-05
rclavicle -2.86498e-14 -1.43125e-14 0
rhumerus -59.2025 51.2587 -111.595
rradius 113.533 -0 0
rwrist -83.5564 0 0
rhand 7.9752 -26.1501 8.20295e-05
rfingers 7.12502 -0 0
rthumb 33.2034 -53.1071 9.6037e-05
